<?xml version="1.0" encoding="UTF-8" standalone="no"?>
<svg
   xmlns:dc="http://purl.org/dc/elements/1.1/"
   xmlns:cc="http://creativecommons.org/ns#"
   xmlns:rdf="http://www.w3.org/1999/02/22-rdf-syntax-ns#"
   xmlns:svg="http://www.w3.org/2000/svg"
   xmlns="http://www.w3.org/2000/svg"
   xmlns:sodipodi="http://sodipodi.sourceforge.net/DTD/sodipodi-0.dtd"
   xmlns:inkscape="http://www.inkscape.org/namespaces/inkscape"
   inkscape:version="1.0.1 (3bc2e813f5, 2020-09-07)"
   inkscape:export-ydpi="300"
   inkscape:export-xdpi="300"
   inkscape:export-filename="/Users/heitor.arns/Dropbox/Akenge/Identidade Visual/HAUSENN/png/hausenn_INPI.png"
   height="2.4420302cm"
   width="15.875cm"
   sodipodi:docname="hausenn.svg"
   xml:space="preserve"
   viewBox="0 0 600.00001 92.297201"
   y="0px"
   x="0px"
   id="Camada_1"
   version="1.1"><metadata
   id="metadata862"><rdf:RDF><cc:Work
       rdf:about=""><dc:format>image/svg+xml</dc:format><dc:type
         rdf:resource="http://purl.org/dc/dcmitype/StillImage" /><dc:title></dc:title></cc:Work></rdf:RDF></metadata><defs
   id="defs860" /><sodipodi:namedview
   units="cm"
   inkscape:current-layer="g855"
   inkscape:window-maximized="1"
   inkscape:window-y="-8"
   inkscape:window-x="-8"
   inkscape:cy="48.900235"
   inkscape:cx="243.48905"
   inkscape:zoom="0.46664745"
   showgrid="false"
   id="namedview858"
   inkscape:window-height="837"
   inkscape:window-width="1600"
   inkscape:pageshadow="2"
   inkscape:pageopacity="0"
   guidetolerance="10"
   gridtolerance="10"
   objecttolerance="10"
   borderopacity="1"
   bordercolor="#666666"
   pagecolor="#ffffff"
   inkscape:document-rotation="0"
   fit-margin-top="0"
   fit-margin-left="0"
   fit-margin-right="0"
   fit-margin-bottom="0" />
<style
   id="style833"
   type="text/css">
	.st0{fill:#FFFFFF;}
</style>
<g
   id="g855"
   transform="translate(-77.952759,-331.80416)">
	
	<g
   transform="matrix(0.37882614,0,0,0.37882614,36.213695,287.23526)"
   id="g892"><g
     id="g849"
     style="fill:#000000;fill-opacity:1">
		<path
   class="st0"
   d="m 139.31,128.24 h -29.13 v -5.3 h 94.01 v 5.3 h -31.12 v 105.27 h 120.5 V 128.24 h -31.12 v -5.3 h 94.02 v 5.3 H 327.34 V 350.7 h 29.13 v 5.3 h -94.02 v -5.3 h 31.12 V 238.81 H 173.07 V 350.7 h 31.12 v 5.3 h -94.01 v -5.3 h 29.13 z"
   id="path835"
   style="fill:#000000;fill-opacity:1" />
		<path
   class="st0"
   d="M 471.35,280.52 H 400.5 l -13.57,41.71 c -2.32,6.62 -4.97,14.57 -4.97,20.19 0,4.64 3.97,8.28 14.57,8.28 h 17.21 v 5.3 h -68.19 v -5.3 h 10.59 c 10.26,0 14.57,-0.99 20.86,-19.53 l 71.17,-213.52 h 3.64 l 80.44,233.05 h 27.48 v 5.3 h -96.99 v -5.3 h 32.44 z m -35.76,-105.6 h -0.66 l -32.44,100.3 h 67.2 z"
   id="path837"
   style="fill:#000000;fill-opacity:1" />
		<path
   class="st0"
   d="m 531.59,122.95 h 100.3 v 5.3 H 596.8 v 173.13 c 0,37.74 28.47,54.62 56.61,54.62 46.35,0 75.48,-22.18 75.48,-71.5 V 150.75 c 0,-17.88 -5.63,-22.51 -20.19,-22.51 h -18.54 v -5.3 h 76.8 v 5.3 h -14.9 c -14.23,0 -17.88,5.96 -17.88,22.84 v 137.38 c 0,51.64 -37.08,72.83 -81.1,72.83 -54.62,0 -90.04,-12.91 -90.04,-65.55 v -167.5 h -31.45 z"
   id="path839"
   style="fill:#000000;fill-opacity:1" />
		<path
   class="st0"
   d="m 765.31,274.23 h 5.3 c 0,55.61 32.77,81.77 72.5,81.77 31.78,0 54.62,-20.19 54.62,-49.99 0,-34.43 -17.88,-44.69 -55.95,-50.65 -51.97,-8.28 -76.47,-16.88 -76.47,-72.5 0,-37.74 24.83,-65.21 61.9,-65.21 34.1,0 47.01,20.19 58.26,20.19 7.61,0 8.61,-8.28 9.6,-12.58 h 5.3 v 69.52 h -5.3 c -2.98,-37.74 -23.5,-71.84 -67.86,-71.84 -28.14,0 -48,18.54 -48,48.99 0,29.79 11.25,36.41 66.21,46.35 48.33,8.61 68.19,24.17 68.19,67.2 0,43.37 -23.84,75.81 -71.84,75.81 -33.1,0 -50.65,-17.21 -62.9,-17.21 -7.95,0 -8.28,8.28 -8.28,13.9 h -5.3 v -83.75 z"
   id="path841"
   style="fill:#000000;fill-opacity:1" />
		<path
   class="st0"
   d="m 946.39,128.24 h -29.13 v -5.3 h 176.44 l 3.97,56.28 h -5.3 c 0,-38.07 -25.16,-50.98 -60.25,-50.98 h -51.97 v 106.59 h 24.83 c 34.43,0 37.74,-20.86 37.74,-42.37 h 5.3 v 88.06 h -5.3 c 0,-25.16 -3.31,-40.39 -38.07,-40.39 h -24.5 V 350.7 h 45.35 c 53.63,0 79.45,-6.29 79.45,-62.57 h 5.3 V 356 H 917.26 v -5.3 h 29.13 z"
   id="path843"
   style="fill:#000000;fill-opacity:1" />
		<path
   class="st0"
   d="m 1153.62,138.84 h -0.66 v 192.99 c 0,15.89 5.3,18.87 20.52,18.87 h 13.24 v 5.3 h -70.84 v -5.3 h 11.26 c 15.23,0 20.52,-2.98 20.52,-18.87 V 128.24 h -31.78 v -5.3 h 69.52 l 125.13,172.8 h 0.66 V 146.12 c 0,-13.57 -2.65,-17.88 -17.21,-17.88 h -15.56 v -5.3 h 69.85 v 5.3 h -14.57 c -14.57,0 -17.21,4.3 -17.21,17.88 v 211.86 h -4.3 z"
   id="path845"
   style="fill:#000000;fill-opacity:1" />
		<path
   class="st0"
   d="m 1372.76,138.84 h -0.66 v 192.99 c 0,15.89 5.3,18.87 20.52,18.87 h 13.24 v 5.3 h -70.84 v -5.3 h 11.25 c 15.23,0 20.52,-2.98 20.52,-18.87 V 128.24 h -31.78 v -5.3 h 69.52 l 125.13,172.8 h 0.66 V 146.12 c 0,-13.57 -2.65,-17.88 -17.21,-17.88 h -15.56 v -5.3 h 69.85 v 5.3 h -14.57 c -14.56,0 -17.21,4.3 -17.21,17.88 v 211.86 h -4.3 z"
   id="path847"
   style="fill:#000000;fill-opacity:1" />
	</g><g
     id="g853"
     style="fill:#000000;fill-opacity:1">
		<path
   class="st0"
   d="m 1626.75,179.76 h 14.26 v 53.02 h 53.01 v 14.26 h -53.01 v 53.01 h -14.26 v -53.01 h -53.01 v -14.26 h 53.01 z"
   id="path851"
   style="fill:#000000;fill-opacity:1" />
	</g></g>
</g>
</svg>
